<svg version="1.2" xmlns="http://www.w3.org/2000/svg" viewBox="0 0 3444 2505" width="3444" height="2505"><style>tspan{white-space:pre}.a{fill:#54d854}.b{fill:#3a8b21}.c{font-size: 556px;fill: #3a8b21;font-weight: 400;font-family: "Dosis-Regular", "Dosis"}.d{font-size: 556px;fill: #54d854;font-weight: 400;font-family: "Dosis-Regular", "Dosis"}</style><path class="a" d="m881.3 670.2c0 0-158.1-346.4 160.1-589.2 325.9-215.8 590.2 63.1 635.3 204.7l153.7-170.1c0 0 279.5-264.7 581.9 6.9 340.5 367-7.7 727.5-7.7 727.5l-705.1 759.3-196.9-215.8 719.1-788.3c0 0 117.5-106.4 5.1-253.1-122-107.3-224.9 8.3-224.9 8.3l-720.4 796.6-205.8-225.4 324-347.2c0 0 88.9-100.8-8.9-229.6-99.7-91.4-198.2-12.4-198.2-12.4z"/><path class="b" d="m1697 1609.3c0 0-616.1-669.8-706.4-769-90.4-99.2-111.8-167.4-111.8-167.4-126.7-345.8 101.6-539.3 101.6-539.3 0 0 95.7-102.7 212.2-121.7 167.5-34.9 279.5 41.4 279.5 41.4 0 0-175.5 168.2-285.8 291.9-119.3 111.2-33.1 233.7-33.1 233.7l125 135.7 397-434.4c0 0 44.2 85.7 43.4 233.7-7.3 136.5-26.6 187.7-26.6 187.7l-209.6 232.7 419.1 456.4z"/><text style="transform:matrix(1.27,0,0,1.383,1696.984,2499.933)" ><tspan x="-1370.3" y="0" class="c" dx="0" >F</tspan><tspan  y="0" class="c" dx="0 2 2 2" >AVOR</tspan><tspan  y="0" class="d" dx="0 2 2 2 2" >BANK
</tspan></text></svg>