<svg version="1.2" xmlns="http://www.w3.org/2000/svg" viewBox="0 0 2569 2313" width="2569" height="2313"><style>.a{fill:#54d854}.b{fill:#3a8b21}</style><path class="a" d="m61.8 963.1c0 0-236.1-497.8 238.8-846.7 486.3-310.1 880.6 90.7 947.9 294.2l229.4-244.5c0 0 417.1-380.4 868.3 10 508.1 527.4-11.4 1045.4-11.4 1045.4l-1052.1 1091.1-293.9-310.1 1073-1132.8c0 0 175.4-152.9 7.6-363.7-182-154.2-335.6 11.9-335.6 11.9l-1074.9 1144.8-307.1-324 483.4-498.8c0 0 132.7-144.9-13.2-329.9-148.8-131.4-295.8-17.9-295.8-17.9z"/><path class="b" d="m1278.9 2312.6c0 0-919.3-962.5-1054.1-1105-134.8-142.6-166.8-240.5-166.8-240.5-189.1-497 151.6-775.1 151.6-775.1 0 0 142.9-147.6 316.6-174.9 250-50.1 417.1 59.6 417.1 59.6 0 0-261.9 241.6-426.5 419.3-178 159.9-49.3 335.9-49.3 335.9l186.4 195 592.4-624.2c0 0 66 123.1 64.8 335.8-10.9 196.2-39.7 269.8-39.7 269.8l-312.8 334.3 625.5 656z"/></svg>